Coordinates
version=1
nRows=24
nColumns=38
inDegrees=no

Units are S.I. units (second, meters, Newtons, ...)
If the header above contains a line with 'inDegrees', this indicates whether rotational values are in degrees (yes) or radians (no).

endheader
time	pelvis_tilt	pelvis_list	pelvis_rotation	pelvis_tx	pelvis_ty	pelvis_tz	hip_flexion_r	hip_adduction_r	hip_rotation_r	knee_angle_r	ankle_angle_r	subtalar_angle_r	mtp_angle_r	hip_flexion_l	hip_adduction_l	hip_rotation_l	knee_angle_l	ankle_angle_l	subtalar_angle_l	mtp_angle_l	lumbar_extension	lumbar_bending	lumbar_rotation	arm_flex_r	arm_add_r	arm_rot_r	elbow_flex_r	pro_sup_r	wrist_flex_r	wrist_dev_r	arm_flex_l	arm_add_l	arm_rot_l	elbow_flex_l	pro_sup_l	wrist_flex_l	wrist_dev_l
1.68	-2.07743	1.43113	-2.76027	0.770399	1.12873	0.989869	0.193307	-0.271637	-0.0418559	1.20099	-0.312196	0	0	0.286698	0.122096	-0.324758	0.397899	0.0389485	0	0	-0.226027	-0.17402	0.103778	-0.0993033	-0.192272	-0.0543082	0.36783	1.51413	0	0	-0.0479414	-0.237903	0.257307	0.382159	1.33471	0	0
1.69	-2.05725	1.42551	-2.78276	0.769694	1.13721	0.990692	0.225996	-0.276865	-0.0229695	1.23852	-0.362894	0	0	0.277149	0.131319	-0.325532	0.395613	0.0443447	0	0	-0.225183	-0.180684	0.104855	-0.0984466	-0.192486	-0.0554457	0.370517	1.51479	0	0	-0.0451299	-0.237751	0.25606	0.382055	1.33844	0	0
1.7	-2.05833	1.42175	-2.78325	0.768989	1.14554	0.991856	0.254733	-0.276114	-0.00310252	1.27266	-0.402659	0	0	0.264834	0.138126	-0.324165	0.392419	0.0498886	0	0	-0.227022	-0.183952	0.105359	-0.0964567	-0.193314	-0.055597	0.37284	1.51482	0	0	-0.0412308	-0.236399	0.254218	0.380193	1.34101	0	0
1.71	-2.07153	1.41848	-2.77091	0.76829	1.15401	0.993174	0.280709	-0.280576	0.00560784	1.30571	-0.421045	0	0	0.248699	0.144607	-0.320056	0.385654	0.0548723	0	0	-0.229945	-0.185672	0.104684	-0.0952928	-0.196502	-0.0377047	0.376807	1.49342	0	0	-0.0362832	-0.232178	0.240003	0.372687	1.35585	0	0
1.72	-2.09228	1.41861	-2.74992	0.767726	1.16217	0.994562	0.304863	-0.272472	0.0218433	1.33616	-0.413646	0	0	0.232836	0.147091	-0.314203	0.379154	0.0606055	0	0	-0.233395	-0.183634	0.103565	-0.0905545	-0.197657	-0.0327189	0.3747	1.49073	0	0	-0.0321924	-0.230732	0.240912	0.370939	1.35138	0	0
1.73	-2.11523	1.41977	-2.7258	0.767167	1.17019	0.995997	0.327281	-0.263157	0.0350237	1.36206	-0.394002	0	0	0.216988	0.148399	-0.308644	0.37217	0.0665618	0	0	-0.237078	-0.180386	0.101439	-0.0846523	-0.198563	-0.0281999	0.371651	1.48801	0	0	-0.0283456	-0.229746	0.243837	0.370384	1.34528	0	0
1.74	-2.12855	1.4207	-2.7118	0.766643	1.1781	0.997338	0.350553	-0.254986	0.0470378	1.38364	-0.370226	0	0	0.201983	0.150579	-0.304906	0.363244	0.0706308	0	0	-0.239406	-0.178122	0.0987049	-0.0776396	-0.200025	-0.0166359	0.367268	1.47743	0	0	-0.0226467	-0.224453	0.220607	0.361939	1.37483	0	0
1.75	-2.13531	1.42114	-2.70321	0.766069	1.18595	0.998541	0.373705	-0.248549	0.0567306	1.40147	-0.345938	0	0	0.187621	0.153621	-0.30135	0.354263	0.0741647	0	0	-0.241043	-0.176845	0.0950891	-0.0707996	-0.200278	-0.0114192	0.362884	1.47469	0	0	-0.0195877	-0.224468	0.223774	0.362392	1.36989	0	0
1.76	-2.13445	1.42121	-2.70169	0.765428	1.19371	0.999625	0.397121	-0.243351	0.0654156	1.41565	-0.323712	0	0	0.173919	0.157302	-0.297828	0.34543	0.0789294	0	0	-0.241918	-0.176435	0.0906968	-0.0638297	-0.200314	-0.00623961	0.358536	1.47186	0	0	-0.0166988	-0.22511	0.228436	0.363304	1.36429	0	0
1.77	-2.13379	1.42175	-2.69917	0.764744	1.20139	1.00065	0.419353	-0.238266	0.0720043	1.42545	-0.305427	0	0	0.15985	0.160975	-0.292792	0.335102	0.0834605	0	0	-0.242928	-0.17546	0.0855958	-0.0573885	-0.200543	-0.00157282	0.355887	1.46914	0	0	-0.0135539	-0.226049	0.233942	0.364226	1.35818	0	0
1.78	-2.13431	1.42312	-2.69509	0.764046	1.20903	1.00164	0.440457	-0.233086	0.0768647	1.43037	-0.291714	0	0	0.145543	0.164064	-0.287048	0.323174	0.0846211	0	0	-0.244183	-0.173328	0.0800634	-0.0490636	-0.198736	-0.0162629	0.349381	1.4961	0	0	-0.00675229	-0.220971	0.204179	0.353758	1.40471	0	0
1.79	-2.13831	1.42471	-2.68737	0.763378	1.21662	1.00256	0.460109	-0.228111	0.0800573	1.43141	-0.280848	0	0	0.131317	0.166225	-0.282081	0.312196	0.0857446	0	0	-0.245633	-0.170789	0.0750603	-0.0438513	-0.199902	-0.0116615	0.348967	1.49529	0	0	-0.00292133	-0.221689	0.206592	0.354049	1.40458	0	0
1.8	-2.14378	1.42574	-2.67774	0.762798	1.22424	1.00329	0.478558	-0.223155	0.0831561	1.42989	-0.271835	0	0	0.117268	0.168035	-0.277188	0.303332	0.0884908	0	0	-0.246884	-0.169011	0.0706992	-0.0432881	-0.204578	0.0195169	0.356969	1.4528	0	0	-0.00497639	-0.233605	0.268166	0.374348	1.3174	0	0
1.81	-2.14271	1.42773	-2.67367	0.762005	1.2318	1.00397	0.4963	-0.220841	0.0816065	1.42343	-0.26193	0	0	0.104542	0.170034	-0.269295	0.293443	0.0893819	0	0	-0.247425	-0.166057	0.065545	-0.0403441	-0.206428	0.0248942	0.359521	1.44748	0	0	-0.00172599	-0.235834	0.278517	0.377728	1.30379	0	0
1.82	-2.14405	1.42944	-2.66916	0.760724	1.23897	1.00481	0.52855	-0.242731	0.0552205	1.42565	-0.274122	0	0	0.0923567	0.172673	-0.263959	0.283692	0.0886508	0	0	-0.249541	-0.162223	0.0625069	-0.0362476	-0.210052	0.0281651	0.361861	1.44455	0	0	0.00369432	-0.234693	0.284633	0.378749	1.29552	0	0
1.83	-2.15876	1.43266	-2.6503	0.759941	1.24629	1.00564	0.541793	-0.239503	0.0499656	1.41099	-0.263364	0	0	0.0796321	0.17189	-0.257833	0.275788	0.089943	0	0	-0.252572	-0.156603	0.0580711	-0.0316266	-0.213183	0.0378211	0.3639	1.437	0	0	0.0129425	-0.224843	0.234378	0.36346	1.36878	0	0
1.84	-2.17685	1.43539	-2.62848	0.759334	1.25359	1.00642	0.553123	-0.236734	0.0439957	1.39332	-0.250403	0	0	0.0669515	0.170858	-0.25246	0.268918	0.0916633	0	0	-0.25582	-0.151981	0.0562081	-0.026151	-0.212766	0.0262276	0.360927	1.45585	0	0	0.0161148	-0.229688	0.268913	0.372868	1.32241	0	0
1.85	-2.20264	1.4383	-2.59957	0.758756	1.26089	1.0072	0.561967	-0.233523	0.0368117	1.37184	-0.235855	0	0	0.0533673	0.168926	-0.2478	0.261535	0.0939615	0	0	-0.260001	-0.146406	0.0543813	-0.0206457	-0.214247	0.0279083	0.359826	1.45689	0	0	0.0227806	-0.227037	0.266203	0.369953	1.33123	0	0
1.86	-2.2284	1.44108	-2.57131	0.758197	1.26816	1.0079	0.569259	-0.230762	0.0284707	1.34655	-0.219551	0	0	0.0397972	0.166809	-0.243871	0.254383	0.0972344	0	0	-0.264125	-0.140982	0.0532649	-0.0141856	-0.215693	0.030822	0.356801	1.45621	0	0	0.0298208	-0.223779	0.262942	0.366535	1.338	0	0
1.87	-2.26309	1.45433	-2.53484	0.757548	1.27568	1.00739	0.579519	-0.21915	0.0142464	1.31889	-0.201062	0	0	0.0335047	0.155323	-0.233959	0.252188	0.106778	0	0	-0.260131	-0.124595	0.0545076	-0.0125546	-0.225265	0.0723052	0.361875	1.40232	0	0	0.0361243	-0.213878	0.235958	0.354469	1.37541	0	0
1.88	-2.27779	1.44524	-2.51823	0.757126	1.28251	1.00912	0.578729	-0.228482	0.00729135	1.28513	-0.1846	0	0	0.0130026	0.164133	-0.233165	0.240775	0.100288	0	0	-0.27279	-0.13122	0.0509406	-0.00144038	-0.223889	0.0766994	0.35541	1.398	0	0	0.045605	-0.213589	0.238016	0.35218	1.37427	0	0
1.89	-2.29832	1.45802	-2.49799	0.756914	1.29001	1.00831	0.588495	-0.217368	-0.00678579	1.25117	-0.166678	0	0	0.00957542	0.153972	-0.22598	0.238671	0.109559	0	0	-0.266957	-0.117979	0.0557776	0.0053623	-0.222876	0.049061	0.34512	1.44186	0	0	0.0487111	-0.211659	0.251966	0.353315	1.35747	0	0
1.9	-2.3471	1.45895	-2.44741	0.756552	1.29727	1.00893	0.585297	-0.216557	-0.022428	1.21099	-0.149997	0	0	-0.00657589	0.151313	-0.223408	0.231108	0.112642	0	0	-0.273963	-0.112568	0.0540763	0.010877	-0.229855	0.0948477	0.348362	1.38551	0	0	0.0556434	-0.208116	0.246818	0.348816	1.36122	0	0
1.91	-2.39975	1.45865	-2.39282	0.756201	1.30452	1.00961	0.579099	-0.216936	-0.0404293	1.16737	-0.134072	0	0	-0.0234917	0.148499	-0.220093	0.225561	0.115318	0	0	-0.282714	-0.107554	0.0519225	0.0201666	-0.232792	0.112815	0.343915	1.36872	0	0	0.0662948	-0.199283	0.208983	0.334382	1.41109	0	0
